<svg width="25" height="25" viewBox="0 0 25 25" fill="none" xmlns="http://www.w3.org/2000/svg">
<path d="M15.6389 4.49984L7.36111 12.4998L15.6389 20.4998C15.8645 20.7172 16.1672 20.836 16.4804 20.8301C16.7936 20.8243 17.0917 20.6942 17.309 20.4686C17.5264 20.243 17.6452 19.9403 17.6393 19.6271C17.6334 19.3138 17.5034 19.0158 17.2778 18.7985L10.7569 12.4998L17.2778 6.19429C17.5034 5.97696 17.6334 5.6789 17.6393 5.36569C17.6452 5.05248 17.5264 4.74977 17.309 4.52415C17.0917 4.29853 16.7936 4.16849 16.4804 4.16263C16.1672 4.15676 15.8645 4.27557 15.6389 4.4929V4.49984Z" fill="#EFEFEF"/>
</svg>
