<svg width="25" height="25" viewBox="0 0 25 25" fill="none" xmlns="http://www.w3.org/2000/svg">
<path d="M9.36111 20.5002L17.6389 12.5002L9.36111 4.50016C9.13549 4.28283 8.83278 4.16402 8.51957 4.16988C8.20636 4.17574 7.9083 4.30579 7.69097 4.53141C7.47364 4.75702 7.35484 5.05974 7.3607 5.37295C7.36656 5.68616 7.4966 5.98422 7.72222 6.20155L14.2431 12.5002L7.72222 18.8057C7.4966 19.023 7.36656 19.3211 7.3607 19.6343C7.35484 19.9475 7.47364 20.2502 7.69097 20.4759C7.9083 20.7015 8.20635 20.8315 8.51957 20.8374C8.83278 20.8432 9.13549 20.7244 9.36111 20.5071L9.36111 20.5002Z" fill="#EFEFEF"/>
</svg>
