<svg width="16" height="16" viewBox="0 0 16 16" fill="none" xmlns="http://www.w3.org/2000/svg">
<g clip-path="url(#clip0_1_608)">
<path d="M13.9592 6.28673C13.9592 10.6629 8.33265 14.4139 8.33265 14.4139C8.33265 14.4139 2.70613 10.6629 2.70613 6.28673C2.70613 4.79449 3.29892 3.36336 4.3541 2.30819C5.40928 1.25301 6.8404 0.660217 8.33265 0.660217C9.82489 0.660217 11.256 1.25301 12.3112 2.30819C13.3664 3.36336 13.9592 4.79449 13.9592 6.28673Z" stroke="white" stroke-width="2" stroke-linecap="round" stroke-linejoin="round"/>
<path d="M8.33264 8.16221C9.36846 8.16221 10.2081 7.32251 10.2081 6.2867C10.2081 5.25089 9.36846 4.41119 8.33264 4.41119C7.29683 4.41119 6.45714 5.25089 6.45714 6.2867C6.45714 7.32251 7.29683 8.16221 8.33264 8.16221Z" stroke="white" stroke-width="2" stroke-linecap="round" stroke-linejoin="round"/>
</g>
<defs>
<clipPath id="clip0_1_608">
<rect width="15.004" height="15.004" fill="white" transform="translate(0.830627 0.0350342)"/>
</clipPath>
</defs>
</svg>
