<svg width="12" height="12" viewBox="0 0 12 12" fill="none" xmlns="http://www.w3.org/2000/svg">
<path d="M2.633 4.8825C2.86694 4.17472 3.31843 3.55891 3.92305 3.1229C4.52768 2.68689 5.25456 2.45297 6 2.4545C6.845 2.4545 7.60899 2.7545 8.20899 3.2455L9.955 1.5C8.891 0.5725 7.5275 0 6 0C3.635 0 1.599 1.349 0.619995 3.325L2.633 4.8825Z" fill="#EA4335"/>
<path d="M8.02003 9.00629C7.47503 9.35779 6.78303 9.54529 6.00003 9.54529C5.25757 9.54681 4.53343 9.31476 3.93015 8.88197C3.32687 8.44918 2.875 7.83759 2.63853 7.13379L0.61853 8.66729C1.11415 9.67043 1.88116 10.5145 2.83244 11.1036C3.78372 11.6926 4.88113 12.0031 6.00003 11.9998C7.46653 11.9998 8.86753 11.4783 9.91703 10.4998L8.02053 9.00629H8.02003Z" fill="#34A853"/>
<path d="M9.917 10.5002C11.0145 9.47618 11.727 7.95218 11.727 6.00018C11.727 5.64518 11.6725 5.26368 11.591 4.90918H6V7.22768H9.218C9.0595 8.00718 8.633 8.61068 8.0205 9.00668L9.917 10.5002Z" fill="#4A90E2"/>
<path d="M2.6385 7.1342C2.51617 6.76865 2.45403 6.38566 2.4545 6.0002C2.4545 5.6092 2.517 5.2337 2.633 4.8827L0.619997 3.3252C0.208186 4.15654 -0.00410101 5.07245 -2.80789e-06 6.0002C-2.80789e-06 6.9602 0.222497 7.8652 0.618497 8.6677L2.6385 7.1342Z" fill="#FBBC05"/>
</svg>
