<svg width="16" height="16" viewBox="0 0 16 16" fill="none" xmlns="http://www.w3.org/2000/svg">
<g clip-path="url(#clip0_1_611)">
<path d="M9.91595 3.50055C10.5266 3.61969 11.0878 3.91832 11.5277 4.35824C11.9676 4.79816 12.2662 5.35934 12.3854 5.96997L9.91595 3.50055ZM9.91595 0.999878C11.1846 1.14081 12.3676 1.70893 13.2708 2.61094C14.1739 3.51296 14.7435 4.69525 14.886 5.96371L9.91595 0.999878ZM14.2609 10.9526V12.8281C14.2616 13.0022 14.2259 13.1745 14.1562 13.334C14.0864 13.4936 13.9841 13.6368 13.8558 13.7545C13.7275 13.8722 13.576 13.9618 13.4111 14.0176C13.2462 14.0734 13.0714 14.0941 12.898 14.0784C10.9743 13.8694 9.12637 13.212 7.5028 12.1591C5.99229 11.1993 4.71164 9.91864 3.75179 8.40812C2.69525 6.77719 2.03774 4.92031 1.83253 2.98791C1.81691 2.81503 1.83745 2.6408 1.89286 2.47629C1.94826 2.31179 2.03731 2.16062 2.15434 2.03242C2.27137 1.90422 2.41381 1.80179 2.5726 1.73165C2.73138 1.66152 2.90303 1.62521 3.07661 1.62505H4.95212C5.25552 1.62206 5.54965 1.7295 5.77969 1.92734C6.00973 2.12517 6.15999 2.39991 6.20245 2.70034C6.28162 3.30054 6.42842 3.88986 6.64007 4.45706C6.72418 4.68082 6.74239 4.92401 6.69253 5.1578C6.64267 5.39159 6.52683 5.60619 6.35875 5.77616L5.56478 6.57013C6.45474 8.13527 7.75066 9.43118 9.31579 10.3211L10.1098 9.52717C10.2797 9.35909 10.4943 9.24325 10.7281 9.19339C10.9619 9.14353 11.2051 9.16174 11.4289 9.24585C11.9961 9.4575 12.5854 9.60431 13.1856 9.68347C13.4893 9.72631 13.7666 9.87927 13.9649 10.1133C14.1631 10.3473 14.2685 10.646 14.2609 10.9526Z" stroke="white" stroke-width="2" stroke-linecap="round" stroke-linejoin="round"/>
</g>
<defs>
<clipPath id="clip0_1_611">
<rect width="15.004" height="15.004" fill="white" transform="translate(0.507172 0.374695)"/>
</clipPath>
</defs>
</svg>
